HIERARCHY
ROOT Hips
{
  OFFSET -2.61333 90.3742 0.480215
  CHANNELS 6 Xposition Yposition Zposition Zrotation Xrotation Yrotation
  JOINT Spine
  {
    OFFSET 0 9.92346 -1.22733
    CHANNELS 6 Xposition Yposition Zposition Zrotation Xrotation Yrotation
    JOINT Spine1
    {
      OFFSET -0.000138865 11.6454 -1.42234
      CHANNELS 6 Xposition Yposition Zposition Zrotation Xrotation Yrotation
      JOINT Spine2
      {
        OFFSET 9.14407e-005 13.3602 -1.62646
        CHANNELS 6 Xposition Yposition Zposition Zrotation Xrotation Yrotation
        JOINT Neck
        {
          OFFSET 2.52021e-005 15.0325 0.792905
          CHANNELS 6 Xposition Yposition Zposition Zrotation Xrotation Yrotation
          JOINT Head
          {
            OFFSET 0 10.3218 3.14243
            CHANNELS 6 Xposition Yposition Zposition Zrotation Xrotation Yrotation
            JOINT HeadTop_End
            {
              OFFSET 0.000154173 18.4747 6.6364
              CHANNELS 6 Xposition Yposition Zposition Zrotation Xrotation Yrotation
              End Site
              {
                OFFSET 0 0 0
              }
            }
            JOINT LeftEye
            {
              OFFSET 2.94792 7.68175 9.12073
              CHANNELS 6 Xposition Yposition Zposition Zrotation Xrotation Yrotation
              End Site
              {
                OFFSET 0 0 0
              }
            }
            JOINT RightEye
            {
              OFFSET -2.94448 7.68175 9.1205
              CHANNELS 6 Xposition Yposition Zposition Zrotation Xrotation Yrotation
              End Site
              {
                OFFSET 0 0 0
              }
            }
          }
        }
        JOINT LeftShoulder
        {
          OFFSET 6.10582 9.11042 0.705551
          CHANNELS 6 Xposition Yposition Zposition Zrotation Xrotation Yrotation
          JOINT LeftArm
          {
            OFFSET 12.655 -0.265934 -2.60092
            CHANNELS 6 Xposition Yposition Zposition Zrotation Xrotation Yrotation
            JOINT LeftForeArm
            {
              OFFSET 27.4047 3.91267e-005 0
              CHANNELS 6 Xposition Yposition Zposition Zrotation Xrotation Yrotation
              JOINT LeftHand
              {
                OFFSET 27.6145 2.89518e-005 1.96466e-005
                CHANNELS 6 Xposition Yposition Zposition Zrotation Xrotation Yrotation
                JOINT LeftHandMiddle1
                {
                  OFFSET 12.7755 1.3342e-005 2.04185e-005
                  CHANNELS 6 Xposition Yposition Zposition Zrotation Xrotation Yrotation
                  JOINT LeftHandMiddle2
                  {
                    OFFSET 3.61397 0 0
                    CHANNELS 6 Xposition Yposition Zposition Zrotation Xrotation Yrotation
                    JOINT LeftHandMiddle3
                    {
                      OFFSET 3.45976 0 -2.64197e-005
                      CHANNELS 6 Xposition Yposition Zposition Zrotation Xrotation Yrotation
                      End Site
                      {
                        OFFSET 3.68019 0 3.27692e-005
                      }
                    }
                  }
                }
                JOINT LeftHandThumb1
                {
                  OFFSET 3.78881 -2.167 3.00309
                  CHANNELS 6 Xposition Yposition Zposition Zrotation Xrotation Yrotation
                  JOINT LeftHandThumb2
                  {
                    OFFSET 3.67544 -2.12201 2.12201
                    CHANNELS 6 Xposition Yposition Zposition Zrotation Xrotation Yrotation
                    JOINT LeftHandThumb3
                    {
                      OFFSET 3.39436 -1.95974 1.95979
                      CHANNELS 6 Xposition Yposition Zposition Zrotation Xrotation Yrotation
                      End Site
                      {
                        OFFSET 2.6794 -1.54694 1.54692
                      }
                    }
                  }
                }
                JOINT LeftHandIndex1
                {
                  OFFSET 12.2666 -0.231669 2.82206
                  CHANNELS 6 Xposition Yposition Zposition Zrotation Xrotation Yrotation
                  JOINT LeftHandIndex2
                  {
                    OFFSET 3.89197 0 3.87215e-005
                    CHANNELS 6 Xposition Yposition Zposition Zrotation Xrotation Yrotation
                    JOINT LeftHandIndex3
                    {
                      OFFSET 3.41516 0 0
                      CHANNELS 6 Xposition Yposition Zposition Zrotation Xrotation Yrotation
                      End Site
                      {
                        OFFSET 3.07799 0 0
                      }
                    }
                  }
                }
                JOINT LeftHandRing1
                {
                  OFFSET 12.147 0.00989498 -2.21663
                  CHANNELS 6 Xposition Yposition Zposition Zrotation Xrotation Yrotation
                  JOINT LeftHandRing2
                  {
                    OFFSET 3.60119 0 3.51122e-005
                    CHANNELS 6 Xposition Yposition Zposition Zrotation Xrotation Yrotation
                    JOINT LeftHandRing3
                    {
                      OFFSET 3.30732 0 -2.08933e-005
                      CHANNELS 6 Xposition Yposition Zposition Zrotation Xrotation Yrotation
                      End Site
                      {
                        OFFSET 3.66012 0 0
                      }
                    }
                  }
                }
                JOINT LeftHandPinky1
                {
                  OFFSET 10.9082 -0.226365 -4.72582
                  CHANNELS 6 Xposition Yposition Zposition Zrotation Xrotation Yrotation
                  JOINT LeftHandPinky2
                  {
                    OFFSET 4.13665 0 2.68984e-005
                    CHANNELS 6 Xposition Yposition Zposition Zrotation Xrotation Yrotation
                    JOINT LeftHandPinky3
                    {
                      OFFSET 2.59484 0 -3.6009e-005
                      CHANNELS 6 Xposition Yposition Zposition Zrotation Xrotation Yrotation
                      End Site
                      {
                        OFFSET 2.92387 0 1.87321e-005
                      }
                    }
                  }
                }
              }
            }
          }
        }
        JOINT RightShoulder
        {
          OFFSET -6.1057 9.11051 0.705563
          CHANNELS 6 Xposition Yposition Zposition Zrotation Xrotation Yrotation
          JOINT RightArm
          {
            OFFSET -12.655 -0.266021 -2.6009
            CHANNELS 6 Xposition Yposition Zposition Zrotation Xrotation Yrotation
            JOINT RightForeArm
            {
              OFFSET -27.4047 3.28841e-005 0
              CHANNELS 6 Xposition Yposition Zposition Zrotation Xrotation Yrotation
              JOINT RightHand
              {
                OFFSET -27.6145 2.26615e-005 1.83241e-005
                CHANNELS 6 Xposition Yposition Zposition Zrotation Xrotation Yrotation
                JOINT RightHandMiddle1
                {
                  OFFSET -12.7755 0 1.80116e-005
                  CHANNELS 6 Xposition Yposition Zposition Zrotation Xrotation Yrotation
                  JOINT RightHandMiddle2
                  {
                    OFFSET -3.61397 0 0
                    CHANNELS 6 Xposition Yposition Zposition Zrotation Xrotation Yrotation
                    JOINT RightHandMiddle3
                    {
                      OFFSET -3.45976 0 -2.64579e-005
                      CHANNELS 6 Xposition Yposition Zposition Zrotation Xrotation Yrotation
                      End Site
                      {
                        OFFSET -3.68019 0 3.25098e-005
                      }
                    }
                  }
                }
                JOINT RightHandThumb1
                {
                  OFFSET -3.78881 -2.167 3.00309
                  CHANNELS 6 Xposition Yposition Zposition Zrotation Xrotation Yrotation
                  JOINT RightHandThumb2
                  {
                    OFFSET -3.67544 -2.12201 2.12201
                    CHANNELS 6 Xposition Yposition Zposition Zrotation Xrotation Yrotation
                    JOINT RightHandThumb3
                    {
                      OFFSET -3.39436 -1.95975 1.95979
                      CHANNELS 6 Xposition Yposition Zposition Zrotation Xrotation Yrotation
                      End Site
                      {
                        OFFSET -2.6794 -1.54695 1.54692
                      }
                    }
                  }
                }
                JOINT RightHandIndex1
                {
                  OFFSET -12.2666 -0.231673 2.82206
                  CHANNELS 6 Xposition Yposition Zposition Zrotation Xrotation Yrotation
                  JOINT RightHandIndex2
                  {
                    OFFSET -3.89197 0 3.7513e-005
                    CHANNELS 6 Xposition Yposition Zposition Zrotation Xrotation Yrotation
                    JOINT RightHandIndex3
                    {
                      OFFSET -3.41516 0 0
                      CHANNELS 6 Xposition Yposition Zposition Zrotation Xrotation Yrotation
                      End Site
                      {
                        OFFSET -3.07799 0 0
                      }
                    }
                  }
                }
                JOINT RightHandRing1
                {
                  OFFSET -12.147 0.0098909 -2.21663
                  CHANNELS 6 Xposition Yposition Zposition Zrotation Xrotation Yrotation
                  JOINT RightHandRing2
                  {
                    OFFSET -3.60119 0 3.4867e-005
                    CHANNELS 6 Xposition Yposition Zposition Zrotation Xrotation Yrotation
                    JOINT RightHandRing3
                    {
                      OFFSET -3.30732 0 -2.11146e-005
                      CHANNELS 6 Xposition Yposition Zposition Zrotation Xrotation Yrotation
                      End Site
                      {
                        OFFSET -3.66012 0 0
                      }
                    }
                  }
                }
                JOINT RightHandPinky1
                {
                  OFFSET -10.9082 -0.226369 -4.72582
                  CHANNELS 6 Xposition Yposition Zposition Zrotation Xrotation Yrotation
                  JOINT RightHandPinky2
                  {
                    OFFSET -4.13665 0 2.56096e-005
                    CHANNELS 6 Xposition Yposition Zposition Zrotation Xrotation Yrotation
                    JOINT RightHandPinky3
                    {
                      OFFSET -2.59484 0 -3.66612e-005
                      CHANNELS 6 Xposition Yposition Zposition Zrotation Xrotation Yrotation
                      End Site
                      {
                        OFFSET -2.92387 0 1.86957e-005
                      }
                    }
                  }
                }
              }
            }
          }
        }
      }
    }
  }
  JOINT RightUpLeg
  {
    OFFSET -9.12445 -6.6564 -0.0553779
    CHANNELS 6 Xposition Yposition Zposition Zrotation Xrotation Yrotation
    JOINT RightLeg
    {
      OFFSET -0.24468 -40.5954 -0.514528
      CHANNELS 6 Xposition Yposition Zposition Zrotation Xrotation Yrotation
      JOINT RightFoot
      {
        OFFSET 0.244669 -42.0479 -2.06023
        CHANNELS 6 Xposition Yposition Zposition Zrotation Xrotation Yrotation
        JOINT RightToeBase
        {
          OFFSET -0.37336 -10.4922 12.6407
          CHANNELS 6 Xposition Yposition Zposition Zrotation Xrotation Yrotation
          End Site
          {
            OFFSET 0 0 9.99252
          }
        }
      }
    }
  }
  JOINT LeftUpLeg
  {
    OFFSET 9.12445 -6.6564 -0.0553779
    CHANNELS 6 Xposition Yposition Zposition Zrotation Xrotation Yrotation
    JOINT LeftLeg
    {
      OFFSET 0.24468 -40.5954 -0.517041
      CHANNELS 6 Xposition Yposition Zposition Zrotation Xrotation Yrotation
      JOINT LeftFoot
      {
        OFFSET -0.24467 -42.048 -2.05764
        CHANNELS 6 Xposition Yposition Zposition Zrotation Xrotation Yrotation
        JOINT LeftToeBase
        {
          OFFSET 0.37336 -10.4922 12.6407
          CHANNELS 6 Xposition Yposition Zposition Zrotation Xrotation Yrotation
          End Site
          {
            OFFSET 0 0 9.99252
          }
        }
      }
    }
  }
}
MOTION
Frames: 4
Frame Time: 0.0166667
-1.97216 90.4548 -1.32744 -4.35698 8.92535 -9.34873 5.64832e-007 9.92346 -1.22733 0.852619 2.83375 1.75513 -0.000138865 11.6454 -1.42234 -1.27636 6.05368 3.19379 9.14407e-005 13.3602 -1.62646 -1.29802 6.03801 3.21654 2.52021e-005 15.0325 0.792905 1.66295 -2.68227 1.06965 2.37075e-006 10.3218 3.14243 5.96961 -10.1651 0.255619 0.000154173 18.4747 6.6364 1.09332e-015 6.36111e-015 -3.97569e-016 2.94792 7.68175 9.12073 1.09332e-015 6.36111e-015 -3.97569e-016 -2.94448 7.68175 9.1205 1.09332e-015 6.36111e-015 -3.97569e-016 6.10582 9.11042 0.705551 -11.6581 0.207553 2.50965 12.655 -0.265934 -2.60092 12.2556 31.709 -92.9989 27.4047 3.91267e-005 6.58811e-006 3.01762e-005 -7.20904e-006 -95.422 27.6145 2.89518e-005 1.96466e-005 -23.1207 -36.8806 -5.04212 12.7755 1.3342e-005 2.04185e-005 -30.3248 -0.946513 3.49177 3.61397 2.66014e-006 2.46236e-006 -22.0628 -0.506373 2.59698 3.45976 5.43247e-007 -2.64197e-005 -11.0262 -0.127586 1.32199 3.78881 -2.167 3.00309 12.1976 -9.59293 4.00117 3.67544 -2.12201 2.12201 4.0543 -1.74021 25.8581 3.39436 -1.95974 1.95979 3.91277 -3.24006 10.8018 12.2666 -0.231669 2.82206 -30.3408 -0.947491 3.49343 3.89197 1.68687e-006 3.87215e-005 -22.0468 -0.505631 2.59519 3.41516 5.74911e-007 -8.77053e-006 -11.0262 -0.127585 1.32199 12.147 0.00989498 -2.21663 -30.3408 -0.947491 3.49343 3.60119 1.51294e-006 3.51122e-005 -22.0468 -0.505631 2.59519 3.30732 4.53174e-006 -2.08933e-005 -11.0262 -0.127585 1.32199 10.9082 -0.226365 -4.72582 -29.8332 -0.898399 7.55596 4.13665 2.29995e-006 2.68984e-005 -22.5398 1.03291 -1.15602 2.59484 5.93904e-008 -3.6009e-005 -11.0262 -0.127583 1.32199 -6.1057 9.11051 0.705563 10.8557 0.213821 -2.34774 -12.655 -0.266021 -2.6009 41.137 40.8811 44.9022 -27.4047 3.28841e-005 5.27564e-006 -3.32998e-005 -1.36198e-005 12.2125 -27.6145 2.26615e-005 1.83241e-005 -1.7385 -9.74326 4.45501 -12.7755 8.94577e-006 1.80116e-005 1.28339e-006 -5.93743e-007 -3.30325e-006 -3.61397 2.7565e-006 3.08034e-006 2.78418e-005 -3.51962e-007 -1.40853e-005 -3.45976 -1.97218e-007 -2.64579e-005 1.46105e-005 -1.98612e-006 9.04626e-006 -3.78881 -2.167 3.00309 -17.8481 3.10914 -5.87485 -3.67544 -2.12201 2.12201 -1.02094 6.21607 -21.8032 -3.39436 -1.95975 1.95979 -2.77734 -0.353712 -6.50639 -12.2666 -0.231673 2.82206 1.28339e-006 -5.93743e-007 -3.30325e-006 -3.89197 -7.20555e-008 3.7513e-005 1.15472e-006 4.69151e-006 -4.37256e-006 -3.41516 2.52991e-007 -8.60584e-006 3.1763e-006 -5.68108e-006 -2.91377e-006 -12.147 0.0098909 -2.21663 1.28339e-006 -5.93743e-007 -3.30325e-006 -3.60119 2.38565e-007 3.4867e-005 1.20609e-005 -3.51661e-007 -8.17393e-006 -3.30732 3.76018e-006 -2.11146e-005 -3.38407e-006 -5.42504e-006 -8.15613e-006 -10.9082 -0.226369 -4.72582 1.28339e-006 -5.93743e-007 -3.30325e-006 -4.13665 4.31063e-007 2.56096e-005 1.15472e-006 4.69151e-006 -4.37256e-006 -2.59484 -9.57149e-007 -3.66612e-005 3.1763e-006 -5.68108e-006 -2.91377e-006 -9.12445 -6.6564 -0.0553779 -1.78888 1.23299 -12.3637 -0.24468 -40.5954 -0.514528 0.674794 35.5493 5.60577 0.244669 -42.0479 -2.06023 3.65625 -3.25681 2.24013 -0.37336 -10.4922 12.6407 1.14522 -46.6239 0.75121 9.12445 -6.6564 -0.0553779 15.4252 -50.3284 12.8077 0.24468 -40.5954 -0.517041 0.155379 31.0247 7.18838 -0.24467 -42.048 -2.05764 0.459406 2.29282 -0.478947 0.37336 -10.4922 12.6407 -4.84277e-007 -0.00473734 2.2404e-006 
-1.67294 89.6734 -1.04492 -3.47334 8.13297 -9.43465 5.64832e-007 9.92346 -1.22733 0.390815 3.01836 1.68823 -0.000138865 11.6454 -1.42234 -1.5291 6.33945 3.26765 9.14407e-005 13.3602 -1.62646 -1.54629 6.3266 3.28605 2.52021e-005 15.0325 0.792905 1.60218 -2.63065 1.05042 2.37075e-006 10.3218 3.14243 5.99409 -10.0838 0.0806826 0.000154173 18.4747 6.6364 -9.93923e-017 -1.59028e-015 3.97569e-016 2.94792 7.68175 9.12073 -9.93923e-017 -1.59028e-015 3.97569e-016 -2.94448 7.68175 9.1205 -9.93923e-017 -1.59028e-015 3.97569e-016 6.10582 9.11042 0.705551 -11.7112 0.213338 2.48842 12.655 -0.265934 -2.60092 12.1341 31.5789 -92.869 27.4047 3.91267e-005 6.58811e-006 -3.05176e-005 3.46567e-012 -95.4607 27.6145 2.89518e-005 1.96466e-005 -23.5516 -36.7009 -5.24395 12.7755 1.3342e-005 2.04185e-005 -30.3248 -0.946513 3.49177 3.61397 2.66014e-006 2.46236e-006 -22.0628 -0.506362 2.59698 3.45976 5.43247e-007 -2.64197e-005 -11.0262 -0.127612 1.32199 3.78881 -2.167 3.00309 12.1976 -9.59293 4.00117 3.67544 -2.12201 2.12201 4.0543 -1.74021 25.8581 3.39436 -1.95974 1.95979 3.91277 -3.24006 10.8018 12.2666 -0.231669 2.82206 -30.3408 -0.947491 3.49343 3.89197 1.68687e-006 3.87215e-005 -22.0468 -0.505643 2.5952 3.41516 5.74911e-007 -8.77053e-006 -11.0262 -0.127608 1.32198 12.147 0.00989498 -2.21663 -30.3408 -0.947491 3.49343 3.60119 1.51294e-006 3.51122e-005 -22.0468 -0.505643 2.5952 3.30732 4.53174e-006 -2.08933e-005 -11.0262 -0.127608 1.32198 10.9082 -0.226365 -4.72582 -29.8332 -0.898399 7.55596 4.13665 2.29995e-006 2.68984e-005 -22.5398 1.03291 -1.156 2.59484 5.93904e-008 -3.6009e-005 -11.0262 -0.127592 1.32199 -6.1057 9.11051 0.705563 10.858 0.211302 -2.36151 -12.655 -0.266021 -2.6009 40.6274 40.7477 45.1526 -27.4047 3.28841e-005 5.27564e-006 4.98493e-006 4.49759e-006 12.9898 -27.6145 2.26615e-005 1.83241e-005 -2.53445 -10.3774 4.79928 -12.7755 8.94577e-006 1.80116e-005 1.28339e-006 -5.93743e-007 -3.30325e-006 -3.61397 2.7565e-006 3.08034e-006 2.78418e-005 -3.51962e-007 -1.40853e-005 -3.45976 -1.97218e-007 -2.64579e-005 1.46105e-005 -1.98612e-006 9.04626e-006 -3.78881 -2.167 3.00309 -17.8481 3.10914 -5.87485 -3.67544 -2.12201 2.12201 -1.02094 6.21607 -21.8032 -3.39436 -1.95975 1.95979 -2.77734 -0.353712 -6.50639 -12.2666 -0.231673 2.82206 1.28339e-006 -5.93743e-007 -3.30325e-006 -3.89197 -7.20555e-008 3.7513e-005 1.15472e-006 4.69151e-006 -4.37256e-006 -3.41516 2.52991e-007 -8.60584e-006 3.1763e-006 -5.68108e-006 -2.91377e-006 -12.147 0.0098909 -2.21663 1.28339e-006 -5.93743e-007 -3.30325e-006 -3.60119 2.38565e-007 3.4867e-005 1.20609e-005 -3.51661e-007 -8.17393e-006 -3.30732 3.76018e-006 -2.11146e-005 -3.38407e-006 -5.42504e-006 -8.15613e-006 -10.9082 -0.226369 -4.72582 1.28339e-006 -5.93743e-007 -3.30325e-006 -4.13665 4.31063e-007 2.56096e-005 1.15472e-006 4.69151e-006 -4.37256e-006 -2.59484 -9.57149e-007 -3.66612e-005 3.1763e-006 -5.68108e-006 -2.91377e-006 -9.12445 -6.6564 -0.0553779 -4.27693 1.35213 -12.5671 -0.24468 -40.5954 -0.514528 0.639149 38.4788 4.41223 0.244669 -42.0479 -2.06023 4.70016 4.08553 2.67281 -0.37336 -10.4922 12.6407 1.90195 -56.8182 1.36644 9.12445 -6.6564 -0.0553779 13.5032 -50.6578 10.8985 0.24468 -40.5954 -0.517041 0.193714 34.5259 7.62164 -0.24467 -42.048 -2.05764 -0.0548584 5.60606 -0.45 0.37336 -10.4922 12.6407 -5.27173e-007 -0.00321942 -3.32867e-006 
-1.38514 89.1139 -0.719735 -2.66542 7.37438 -9.51121 5.64832e-007 9.92346 -1.22733 0.0848904 3.19574 1.64241 -0.000138865 11.6454 -1.42234 -1.77674 6.62713 3.35271 9.14407e-005 13.3602 -1.62646 -1.79043 6.61647 3.36782 2.52021e-005 15.0325 0.792905 1.51979 -2.57305 1.02733 2.37075e-006 10.3218 3.14243 5.9679 -10.1797 -0.116146 0.000154173 18.4747 6.6364 5.96354e-016 0 -0 2.94792 7.68175 9.12073 5.96354e-016 0 -0 -2.94448 7.68175 9.1205 5.96354e-016 0 -0 6.10582 9.11042 0.705551 -11.7787 0.220659 2.46133 12.655 -0.265934 -2.60092 12.0993 31.4198 -92.9117 27.4047 3.91267e-005 6.58811e-006 4.57763e-005 -6.30426e-012 -95.7401 27.6145 2.89518e-005 1.96466e-005 -23.8656 -36.5064 -5.11257 12.7755 1.3342e-005 2.04185e-005 -30.3248 -0.946513 3.49177 3.61397 2.66014e-006 2.46236e-006 -22.0628 -0.506363 2.59699 3.45976 5.43247e-007 -2.64197e-005 -11.0262 -0.127594 1.32199 3.78881 -2.167 3.00309 12.1976 -9.59293 4.00117 3.67544 -2.12201 2.12201 4.0543 -1.74021 25.8581 3.39436 -1.95974 1.95979 3.91277 -3.24006 10.8018 12.2666 -0.231669 2.82206 -30.3408 -0.947491 3.49343 3.89197 1.68687e-006 3.87215e-005 -22.0468 -0.505638 2.59519 3.41516 5.74911e-007 -8.77053e-006 -11.0262 -0.127594 1.322 12.147 0.00989498 -2.21663 -30.3408 -0.947491 3.49343 3.60119 1.51294e-006 3.51122e-005 -22.0468 -0.505638 2.59519 3.30732 4.53174e-006 -2.08933e-005 -11.0262 -0.127594 1.322 10.9082 -0.226365 -4.72582 -29.8332 -0.898399 7.55596 4.13665 2.29995e-006 2.68984e-005 -22.5398 1.03291 -1.156 2.59484 5.93904e-008 -3.6009e-005 -11.0262 -0.12761 1.32199 -6.1057 9.11051 0.705563 10.8385 0.20677 -2.38329 -12.655 -0.266021 -2.6009 39.5418 40.6204 45.8144 -27.4047 3.28841e-005 5.27564e-006 2.67639e-006 5.7479e-006 14.2013 -27.6145 2.26615e-005 1.83241e-005 -3.44068 -11.6676 5.09177 -12.7755 8.94577e-006 1.80116e-005 1.28339e-006 -5.93743e-007 -3.30325e-006 -3.61397 2.7565e-006 3.08034e-006 2.78418e-005 -3.51962e-007 -1.40853e-005 -3.45976 -1.97218e-007 -2.64579e-005 1.46105e-005 -1.98612e-006 9.04626e-006 -3.78881 -2.167 3.00309 -17.8481 3.10914 -5.87485 -3.67544 -2.12201 2.12201 -1.02094 6.21607 -21.8032 -3.39436 -1.95975 1.95979 -2.77734 -0.353712 -6.50639 -12.2666 -0.231673 2.82206 1.28339e-006 -5.93743e-007 -3.30325e-006 -3.89197 -7.20555e-008 3.7513e-005 1.15472e-006 4.69151e-006 -4.37256e-006 -3.41516 2.52991e-007 -8.60584e-006 3.1763e-006 -5.68108e-006 -2.91377e-006 -12.147 0.0098909 -2.21663 1.28339e-006 -5.93743e-007 -3.30325e-006 -3.60119 2.38565e-007 3.4867e-005 1.20609e-005 -3.51661e-007 -8.17393e-006 -3.30732 3.76018e-006 -2.11146e-005 -3.38407e-006 -5.42504e-006 -8.15613e-006 -10.9082 -0.226369 -4.72582 1.28339e-006 -5.93743e-007 -3.30325e-006 -4.13665 4.31063e-007 2.56096e-005 1.15472e-006 4.69151e-006 -4.37256e-006 -2.59484 -9.57149e-007 -3.66612e-005 3.1763e-006 -5.68108e-006 -2.91377e-006 -9.12445 -6.6564 -0.0553779 -5.68423 2.30539 -12.8122 -0.24468 -40.5954 -0.514528 0.653451 38.9675 8.59778 0.244669 -42.0479 -2.06023 3.85694 7.65726 2.49745 -0.37336 -10.4922 12.6407 -0.419177 -54.0658 -0.273004 9.12445 -6.6564 -0.0553779 11.4105 -50.7321 8.86153 0.24468 -40.5954 -0.517041 0.249636 38.7231 8.08323 -0.24467 -42.048 -2.05764 -0.689645 5.77661 -0.402106 0.37336 -10.4922 12.6407 5.10451e-007 -1.51743e-005 -1.06543e-006 
-1.15091 88.576 -0.616729 -1.7297 6.67325 -9.68524 5.64832e-007 9.92346 -1.22733 -0.330435 3.35358 1.65723 -0.000138865 11.6454 -1.42234 -1.99586 6.89604 3.45743 9.14407e-005 13.3602 -1.62646 -2.00733 6.8867 3.47046 2.52021e-005 15.0325 0.792905 1.42341 -2.50837 1.00258 2.37075e-006 10.3218 3.14243 5.87354 -10.4402 -0.315307 0.000154173 18.4747 6.6364 -9.93923e-017 3.18055e-015 -3.97569e-016 2.94792 7.68175 9.12073 -9.93923e-017 3.18055e-015 -3.97569e-016 -2.94448 7.68175 9.1205 -9.93923e-017 3.18055e-015 -3.97569e-016 6.10582 9.11042 0.705551 -11.8522 0.227295 2.43767 12.655 -0.265934 -2.60092 11.4893 31.2676 -92.5485 27.4047 3.91267e-005 6.58811e-006 1.56095e-005 7.30732e-006 -95.4961 27.6145 2.89518e-005 1.96466e-005 -24.9313 -35.9476 -5.47504 12.7755 1.3342e-005 2.04185e-005 -30.3248 -0.946513 3.49177 3.61397 2.66014e-006 2.46236e-006 -22.0628 -0.506356 2.59698 3.45976 5.43247e-007 -2.64197e-005 -11.0262 -0.1276 1.322 3.78881 -2.167 3.00309 12.1976 -9.59293 4.00117 3.67544 -2.12201 2.12201 4.0543 -1.74021 25.8581 3.39436 -1.95974 1.95979 3.91277 -3.24006 10.8018 12.2666 -0.231669 2.82206 -30.3408 -0.947491 3.49343 3.89197 1.68687e-006 3.87215e-005 -22.0468 -0.505643 2.5952 3.41516 5.74911e-007 -8.77053e-006 -11.0262 -0.127587 1.322 12.147 0.00989498 -2.21663 -30.3408 -0.947491 3.49343 3.60119 1.51294e-006 3.51122e-005 -22.0468 -0.505643 2.5952 3.30732 4.53174e-006 -2.08933e-005 -11.0262 -0.127587 1.322 10.9082 -0.226365 -4.72582 -29.8332 -0.898399 7.55596 4.13665 2.29995e-006 2.68984e-005 -22.5398 1.0329 -1.156 2.59484 5.93904e-008 -3.6009e-005 -11.0262 -0.127573 1.322 -6.1057 9.11051 0.705563 10.7924 0.201732 -2.40403 -12.655 -0.266021 -2.6009 38.1871 40.4871 46.8784 -27.4047 3.28841e-005 5.27564e-006 -3.74666e-006 -3.01318e-006 15.7557 -27.6145 2.26615e-005 1.83241e-005 -4.4524 -13.4198 5.23663 -12.7755 8.94577e-006 1.80116e-005 1.28339e-006 -5.93743e-007 -3.30325e-006 -3.61397 2.7565e-006 3.08034e-006 2.78418e-005 -3.51962e-007 -1.40853e-005 -3.45976 -1.97218e-007 -2.64579e-005 1.46105e-005 -1.98612e-006 9.04626e-006 -3.78881 -2.167 3.00309 -17.8481 3.10914 -5.87485 -3.67544 -2.12201 2.12201 -1.02094 6.21607 -21.8032 -3.39436 -1.95975 1.95979 -2.77734 -0.353712 -6.50639 -12.2666 -0.231673 2.82206 1.28339e-006 -5.93743e-007 -3.30325e-006 -3.89197 -7.20555e-008 3.7513e-005 1.15472e-006 4.69151e-006 -4.37256e-006 -3.41516 2.52991e-007 -8.60584e-006 3.1763e-006 -5.68108e-006 -2.91377e-006 -12.147 0.0098909 -2.21663 1.28339e-006 -5.93743e-007 -3.30325e-006 -3.60119 2.38565e-007 3.4867e-005 1.20609e-005 -3.51661e-007 -8.17393e-006 -3.30732 3.76018e-006 -2.11146e-005 -3.38407e-006 -5.42504e-006 -8.15613e-006 -10.9082 -0.226369 -4.72582 1.28339e-006 -5.93743e-007 -3.30325e-006 -4.13665 4.31063e-007 2.56096e-005 1.15472e-006 4.69151e-006 -4.37256e-006 -2.59484 -9.57149e-007 -3.66612e-005 3.1763e-006 -5.68108e-006 -2.91377e-006 -9.12445 -6.6564 -0.0553779 -7.73169 1.5046 -12.4829 -0.24468 -40.5954 -0.514528 0.594135 41.3839 8.84592 0.244669 -42.0479 -2.06023 6.55823 16.6752 0.289555 -0.37336 -10.4922 12.6407 0.43557 -62.3486 0.335526 9.12445 -6.6564 -0.0553779 9.17508 -51.1834 6.9328 0.24468 -40.5954 -0.517041 0.329438 44.3982 8.82323 -0.24467 -42.048 -2.05764 -1.4771 1.03897 -0.403818 0.37336 -10.4922 12.6407 4.60995e-007 -0.0025743 2.77121e-006 
